<mxfile host="65bd71144e">
    <diagram id="HCZLOhxZrtGK2CMIRcbk" name="第 1 页">
        <mxGraphModel dx="674" dy="453" grid="1" gridSize="10" guides="1" tooltips="1" connect="1" arrows="1" fold="1" page="1" pageScale="1" pageWidth="827" pageHeight="1169" math="0" shadow="0">
            <root>
                <mxCell id="0"/>
                <mxCell id="1" parent="0"/>
                <mxCell id="4" style="edgeStyle=none;html=1;entryX=0.5;entryY=0;entryDx=0;entryDy=0;exitX=0.5;exitY=1;exitDx=0;exitDy=0;" edge="1" parent="1" source="2" target="3">
                    <mxGeometry relative="1" as="geometry">
                        <Array as="points">
                            <mxPoint x="225" y="110"/>
                            <mxPoint x="160" y="110"/>
                        </Array>
                    </mxGeometry>
                </mxCell>
                <mxCell id="2" value="WeakMap" style="rounded=1;whiteSpace=wrap;html=1;" vertex="1" parent="1">
                    <mxGeometry x="170" y="70" width="110" height="30" as="geometry"/>
                </mxCell>
                <mxCell id="3" value="key" style="rounded=1;whiteSpace=wrap;html=1;" vertex="1" parent="1">
                    <mxGeometry x="110" y="130" width="100" height="30" as="geometry"/>
                </mxCell>
                <mxCell id="5" value="" style="whiteSpace=wrap;html=1;" vertex="1" parent="1">
                    <mxGeometry x="120" y="170" width="80" height="140" as="geometry"/>
                </mxCell>
                <mxCell id="11" style="edgeStyle=none;html=1;" edge="1" parent="1" source="6" target="10">
                    <mxGeometry relative="1" as="geometry"/>
                </mxCell>
                <mxCell id="6" value="target1" style="rounded=1;whiteSpace=wrap;html=1;dashed=1;" vertex="1" parent="1">
                    <mxGeometry x="125" y="180" width="70" height="20" as="geometry"/>
                </mxCell>
                <mxCell id="7" value="target2" style="rounded=1;whiteSpace=wrap;html=1;dashed=1;" vertex="1" parent="1">
                    <mxGeometry x="125" y="210" width="70" height="20" as="geometry"/>
                </mxCell>
                <mxCell id="8" value="targetn" style="rounded=1;whiteSpace=wrap;html=1;dashed=1;" vertex="1" parent="1">
                    <mxGeometry x="125" y="280" width="70" height="20" as="geometry"/>
                </mxCell>
                <mxCell id="13" style="edgeStyle=none;html=1;entryX=0.5;entryY=0;entryDx=0;entryDy=0;exitX=0.5;exitY=1;exitDx=0;exitDy=0;" edge="1" parent="1" source="10" target="12">
                    <mxGeometry relative="1" as="geometry">
                        <Array as="points">
                            <mxPoint x="390" y="217.5"/>
                            <mxPoint x="330" y="217.5"/>
                        </Array>
                    </mxGeometry>
                </mxCell>
                <mxCell id="10" value="Map" style="rounded=1;whiteSpace=wrap;html=1;" vertex="1" parent="1">
                    <mxGeometry x="340" y="175" width="100" height="30" as="geometry"/>
                </mxCell>
                <mxCell id="12" value="key" style="rounded=1;whiteSpace=wrap;html=1;" vertex="1" parent="1">
                    <mxGeometry x="290" y="237.5" width="80" height="20" as="geometry"/>
                </mxCell>
                <mxCell id="14" value="" style="whiteSpace=wrap;html=1;" vertex="1" parent="1">
                    <mxGeometry x="290" y="267.5" width="80" height="100" as="geometry"/>
                </mxCell>
                <mxCell id="19" style="edgeStyle=none;html=1;entryX=0;entryY=0.5;entryDx=0;entryDy=0;" edge="1" parent="1" source="15" target="18">
                    <mxGeometry relative="1" as="geometry"/>
                </mxCell>
                <mxCell id="15" value="key1" style="rounded=1;whiteSpace=wrap;html=1;dashed=1;" vertex="1" parent="1">
                    <mxGeometry x="295" y="277.5" width="70" height="20" as="geometry"/>
                </mxCell>
                <mxCell id="16" value="key2" style="rounded=1;whiteSpace=wrap;html=1;dashed=1;" vertex="1" parent="1">
                    <mxGeometry x="295" y="307.5" width="70" height="20" as="geometry"/>
                </mxCell>
                <mxCell id="17" value="key3" style="rounded=1;whiteSpace=wrap;html=1;dashed=1;" vertex="1" parent="1">
                    <mxGeometry x="295" y="337.5" width="70" height="20" as="geometry"/>
                </mxCell>
                <mxCell id="18" value="Set" style="rounded=1;whiteSpace=wrap;html=1;" vertex="1" parent="1">
                    <mxGeometry x="450" y="277.5" width="80" height="20" as="geometry"/>
                </mxCell>
                <mxCell id="20" value="依赖集合" style="text;html=1;strokeColor=none;fillColor=none;align=center;verticalAlign=middle;whiteSpace=wrap;rounded=0;dashed=1;" vertex="1" parent="1">
                    <mxGeometry x="460" y="247.5" width="60" height="20" as="geometry"/>
                </mxCell>
                <mxCell id="21" value="" style="whiteSpace=wrap;html=1;" vertex="1" parent="1">
                    <mxGeometry x="450" y="307.5" width="80" height="100" as="geometry"/>
                </mxCell>
                <mxCell id="22" value="effect1" style="rounded=1;whiteSpace=wrap;html=1;dashed=1;" vertex="1" parent="1">
                    <mxGeometry x="455" y="317.5" width="70" height="20" as="geometry"/>
                </mxCell>
                <mxCell id="23" value="effect1" style="rounded=1;whiteSpace=wrap;html=1;dashed=1;" vertex="1" parent="1">
                    <mxGeometry x="455" y="347.5" width="70" height="20" as="geometry"/>
                </mxCell>
                <mxCell id="24" value="effect3" style="rounded=1;whiteSpace=wrap;html=1;dashed=1;" vertex="1" parent="1">
                    <mxGeometry x="455" y="377.5" width="70" height="20" as="geometry"/>
                </mxCell>
                <mxCell id="25" value="副作用函数与响应式目标字段之间的数据结构关系" style="text;html=1;strokeColor=none;fillColor=none;align=center;verticalAlign=middle;whiteSpace=wrap;rounded=0;dashed=1;" vertex="1" parent="1">
                    <mxGeometry x="155" y="407.5" width="300" height="20" as="geometry"/>
                </mxCell>
            </root>
        </mxGraphModel>
    </diagram>
</mxfile>